TITLE "TVアニメ「ご注文はうさぎですか？」キャラクターソング①"
REM DATE "2014"
FILE "GNCA-0337.flac" WAVE
  TRACK 01 AUDIO
    TITLE "全天候型いらっしゃいませ"
    PERFORMER "ココア（佐倉綾音）、チノ（水瀬いのり）"
    INDEX 01 00:00:00
  TRACK 02 AUDIO
    TITLE "ハミングsoon！"
    PERFORMER "ココア（佐倉綾音）"
    INDEX 00 03:44:10
    INDEX 01 03:45:48
  TRACK 03 AUDIO
    TITLE "a cup of happiness"
    PERFORMER "チノ（水瀬いのり）"
    INDEX 00 08:22:22
    INDEX 01 08:23:23
  TRACK 04 AUDIO
    TITLE "全天候型いらっしゃいませ (Instrumental)"
    PERFORMER "ココア（佐倉綾音）、チノ（水瀬いのり）"
    INDEX 00 12:56:41
    INDEX 01 12:58:46
  TRACK 05 AUDIO
    TITLE "ハミングsoon！(Instrumental)"
    PERFORMER "ココア（佐倉綾音）"
    INDEX 00 16:42:18
    INDEX 01 16:43:56
  TRACK 06 AUDIO
    TITLE "a cup of happiness (Instrumental)"
    PERFORMER "チノ（水瀬いのり）"
    INDEX 00 21:20:30
    INDEX 01 21:21:31
